<?xml version="1.0" encoding="UTF-8"?>
<!DOCTYPE svg PUBLIC "-//W3C//DTD SVG 1.1//EN" "http://www.w3.org/Graphics/SVG/1.1/DTD/svg11.dtd">
<svg version="1.1" xmlns="http://www.w3.org/2000/svg" xmlns:xlink="http://www.w3.org/1999/xlink" x="0" y="0" width="60" height="41.379" viewBox="0, 0, 60, 41.379">
  <g id="Layer_1">
    <path d="M16.966,11.793 L45.103,11.793 L45.103,28.138 L16.966,28.138 z" fill="#FFFFFF" id="canvas_background"/>
    <path d="M0.954,20.979 L1.751,21.121 L3.457,21.393 L6.029,21.726 L9.46,22.035 L12.904,22.205 L16.324,22.254 L19.716,22.199 L23.075,22.061 L26.4,21.858 L31.3,21.477 L37.739,20.913 L42.47,20.525 L45.55,20.316 L48.604,20.163 L51.62,20.08 L53.067,20.071 L53.067,20.071 C56.824,20.044 60.735,16.856 61.802,12.951 C62.869,9.046 60.689,5.902 56.933,5.929 C56.933,5.929 56.933,5.929 56.933,5.929 L55.214,5.943 L51.893,6.038 L48.602,6.205 L45.329,6.428 L40.519,6.823 L34.215,7.376 L29.544,7.741 L26.484,7.93 L23.455,8.059 L20.455,8.113 L17.482,8.078 L14.531,7.941 L11.566,7.683 L9.341,7.4 L7.848,7.164 L7.046,7.021 C3.521,6.393 -0.7,9.009 -2.382,12.863 C-4.064,16.718 -2.57,20.351 0.954,20.979 L0.954,20.979" fill="#000000"/>
    <path d="M285.825,62.074 L285.824,62.074 L285.824,62.074 C286.457,62.075 288.84,58.013 291.146,53.002 C293.452,47.991 294.809,43.927 294.176,43.926 L294.175,43.926 C294.175,43.926 294.175,43.926 294.175,43.926 C293.541,43.927 291.158,47.99 288.852,53.001 C286.546,58.013 285.191,62.075 285.825,62.074 L285.825,62.074" fill="#000000"/>
  </g>
</svg>
