<?xml version="1.0" encoding="UTF-8"?>
<!DOCTYPE svg PUBLIC "-//W3C//DTD SVG 1.1//EN" "http://www.w3.org/Graphics/SVG/1.1/DTD/svg11.dtd">
<svg version="1.1" xmlns="http://www.w3.org/2000/svg" xmlns:xlink="http://www.w3.org/1999/xlink" x="0" y="0" width="60" height="41.379" viewBox="0, 0, 60, 41.379">
  <g id="Layer_1">
    <path d="M26.56,18.22 L26.495,18.377 L26.335,18.815 L26.195,19.292 L26.093,19.764 L26.028,20.228 L26,20.68 L26.006,21.121 L26.046,21.548 L26.117,21.961 L26.216,22.359 L26.342,22.742 L26.493,23.109 L26.667,23.462 L26.861,23.801 L27.074,24.125 L27.306,24.437 L27.553,24.736 L27.816,25.022 L28.093,25.298 L28.383,25.562 L28.685,25.816 L28.999,26.059 L29.323,26.293 L29.658,26.517 L30.002,26.733 L30.354,26.939 L30.715,27.137 L31.083,27.325 L31.636,27.587 L32.399,27.911 L33.192,28.207 L33.999,28.469 L34.816,28.7 L35.639,28.898 L36.464,29.062 L37.288,29.194 L38.107,29.291 L38.731,29.342 L39.15,29.365 L39.554,29.377 L39.955,29.379 L40.355,29.371 L40.752,29.353 L41.148,29.323 L41.543,29.282 L41.938,29.227 L42.335,29.158 L42.733,29.073 L43.136,28.969 L43.544,28.844 L43.958,28.694 L44.381,28.514 L44.811,28.298 L45.247,28.041 L45.682,27.737 L45.966,27.511 L45.966,27.511 C46.013,27.472 46.058,27.431 46.103,27.391 L46.103,27.391 L46.169,27.33 L46.473,27.022 L46.783,26.663 L47.042,26.313 L47.263,25.975 L47.454,25.646 L47.621,25.325 L47.769,25.008 L47.956,24.56 L48.174,23.956 L48.363,23.339 L48.523,22.729 L48.658,22.13 L48.771,21.545 L48.866,20.98 L48.942,20.441 L49.002,19.933 L49.037,19.57 L49.056,19.338 L49.071,19.124 L49.082,18.92 L49.09,18.728 L49.094,18.547 L49.095,18.449 L49.095,18.449 C49.102,17.158 47.871,16.412 46.345,16.781 C44.819,17.151 43.576,18.497 43.568,19.787 C43.568,19.787 43.568,19.787 43.568,19.787 L43.568,19.823 L43.566,19.933 L43.562,20.062 L43.554,20.209 L43.543,20.37 L43.529,20.538 L43.503,20.814 L43.456,21.222 L43.396,21.655 L43.323,22.102 L43.238,22.552 L43.14,22.994 L43.034,23.413 L42.921,23.796 L42.801,24.147 L42.71,24.376 L42.661,24.487 L42.621,24.572 L42.595,24.626 L42.588,24.647 L42.611,24.629 L42.672,24.571 L42.719,24.533 L42.653,24.595 L42.789,24.474 L42.919,24.377 L43.022,24.318 L43.092,24.287 L43.126,24.278 L43.122,24.287 L43.082,24.308 L43.008,24.335 L42.903,24.367 L42.77,24.399 L42.611,24.429 L42.431,24.457 L42.229,24.481 L42.01,24.499 L41.774,24.511 L41.525,24.518 L41.262,24.518 L40.988,24.511 L40.718,24.498 L40.288,24.466 L39.672,24.397 L39.037,24.299 L38.39,24.173 L37.739,24.02 L37.091,23.84 L36.452,23.635 L35.829,23.407 L35.217,23.151 L34.774,22.943 L34.495,22.801 L34.226,22.655 L33.966,22.505 L33.717,22.351 L33.479,22.193 L33.253,22.032 L33.039,21.869 L32.839,21.704 L32.652,21.537 L32.479,21.369 L32.321,21.201 L32.178,21.033 L32.049,20.867 L31.936,20.702 L31.837,20.54 L31.753,20.381 L31.683,20.226 L31.627,20.075 L31.584,19.929 L31.552,19.788 L31.532,19.65 L31.522,19.516 L31.522,19.384 L31.532,19.253 L31.553,19.121 L31.584,18.984 L31.646,18.8 L31.712,18.641 C32.264,17.304 31.559,16.126 30.137,16.009 C28.714,15.893 27.113,16.882 26.56,18.22 L26.56,18.22" fill="#000000"/>
    <path d="M8.999,20.714 L9.004,20.512 L9.028,20.326 L9.062,20.212 L9.107,20.092 L9.166,19.963 L9.241,19.823 L9.424,19.533 L9.747,19.132 L10.149,18.733 L10.675,18.286 L11.334,17.802 L12.129,17.29 L13.059,16.76 L14.121,16.221 L15.313,15.679 L16.626,15.141 L18.058,14.61 L19.603,14.089 L21.255,13.584 L23.011,13.096 L24.863,12.627 L26.809,12.18 L28.845,11.756 L30.963,11.358 L33.163,10.985 L35.436,10.641 L37.782,10.326 L40.195,10.042 L42.672,9.79 L45.207,9.57 L47.8,9.385 L50.442,9.234 L53.133,9.12 L55.867,9.043 L58.642,9.004 L60.02,9 L60.02,9 C62.782,8.991 65.011,7.193 65,4.984 C64.989,2.775 62.741,0.991 59.98,1 L58.467,1.006 L55.515,1.048 L52.603,1.131 L49.732,1.254 L46.907,1.417 L44.131,1.617 L41.406,1.854 L38.737,2.128 L36.126,2.437 L33.576,2.781 L31.088,3.159 L28.67,3.571 L26.32,4.015 L24.044,4.492 L21.841,5.001 L19.716,5.542 L17.672,6.115 L15.708,6.721 L13.83,7.36 L12.038,8.033 L10.332,8.742 L8.717,9.49 L7.194,10.281 L5.765,11.119 L4.435,12.01 L3.209,12.964 L2.1,13.986 L1.121,15.086 L0.326,16.212 L-0.155,17.085 L-0.435,17.727 L-0.663,18.387 L-0.834,19.061 L-0.946,19.747 L-0.995,20.367 L-0.999,20.569 C-1.049,22.778 1.148,24.601 3.909,24.641 C6.67,24.681 8.949,22.922 8.999,20.714 L8.999,20.714" fill="#090C8D" opacity="0.86"/>
  </g>
</svg>
