<?xml version="1.0" encoding="UTF-8"?>
<!DOCTYPE svg PUBLIC "-//W3C//DTD SVG 1.1//EN" "http://www.w3.org/Graphics/SVG/1.1/DTD/svg11.dtd">
<svg version="1.1" xmlns="http://www.w3.org/2000/svg" xmlns:xlink="http://www.w3.org/1999/xlink" x="0" y="0" width="60" height="41.379" viewBox="0, 0, 60, 41.379">
  <g id="Layer_1">
    <path d="M37.44,18.22 L37.505,18.377 L37.665,18.815 L37.805,19.292 L37.907,19.764 L37.972,20.228 L38,20.68 L37.994,21.121 L37.954,21.548 L37.883,21.961 L37.784,22.359 L37.658,22.742 L37.507,23.109 L37.333,23.462 L37.139,23.801 L36.926,24.125 L36.694,24.437 L36.447,24.736 L36.184,25.022 L35.907,25.298 L35.617,25.562 L35.315,25.816 L35.001,26.059 L34.677,26.293 L34.342,26.517 L33.998,26.733 L33.646,26.939 L33.285,27.137 L32.917,27.325 L32.364,27.587 L31.601,27.911 L30.808,28.207 L30.001,28.469 L29.184,28.7 L28.361,28.898 L27.536,29.062 L26.712,29.194 L25.893,29.291 L25.269,29.342 L24.85,29.365 L24.446,29.377 L24.045,29.379 L23.645,29.371 L23.248,29.353 L22.852,29.323 L22.457,29.282 L22.062,29.227 L21.665,29.158 L21.267,29.073 L20.864,28.969 L20.456,28.844 L20.042,28.694 L19.619,28.514 L19.189,28.298 L18.753,28.041 L18.318,27.737 L18.034,27.511 L18.034,27.511 C17.987,27.472 17.942,27.431 17.897,27.391 L17.897,27.391 L17.831,27.33 L17.527,27.022 L17.217,26.663 L16.958,26.313 L16.737,25.975 L16.546,25.646 L16.379,25.325 L16.231,25.008 L16.044,24.56 L15.826,23.956 L15.637,23.339 L15.477,22.729 L15.342,22.13 L15.229,21.545 L15.134,20.98 L15.058,20.441 L14.998,19.933 L14.963,19.57 L14.944,19.338 L14.929,19.124 L14.918,18.92 L14.91,18.728 L14.906,18.547 L14.905,18.449 L14.905,18.449 C14.898,17.158 16.129,16.412 17.655,16.781 C19.181,17.151 20.424,18.497 20.432,19.787 C20.432,19.787 20.432,19.787 20.432,19.787 L20.432,19.823 L20.434,19.933 L20.438,20.062 L20.446,20.209 L20.457,20.37 L20.471,20.538 L20.497,20.814 L20.544,21.222 L20.604,21.655 L20.677,22.102 L20.762,22.552 L20.86,22.994 L20.966,23.413 L21.079,23.796 L21.199,24.147 L21.29,24.376 L21.339,24.487 L21.379,24.572 L21.405,24.626 L21.412,24.647 L21.389,24.629 L21.328,24.571 L21.281,24.533 L21.347,24.595 L21.211,24.474 L21.081,24.377 L20.978,24.318 L20.908,24.287 L20.874,24.278 L20.878,24.287 L20.918,24.308 L20.992,24.335 L21.097,24.367 L21.23,24.399 L21.389,24.429 L21.569,24.457 L21.771,24.481 L21.99,24.499 L22.226,24.511 L22.475,24.518 L22.738,24.518 L23.012,24.511 L23.282,24.498 L23.712,24.466 L24.328,24.397 L24.963,24.299 L25.61,24.173 L26.261,24.02 L26.909,23.84 L27.548,23.635 L28.171,23.407 L28.783,23.151 L29.226,22.943 L29.505,22.801 L29.774,22.655 L30.034,22.505 L30.283,22.351 L30.521,22.193 L30.747,22.032 L30.961,21.869 L31.161,21.704 L31.348,21.537 L31.521,21.369 L31.679,21.201 L31.822,21.033 L31.951,20.867 L32.064,20.702 L32.163,20.54 L32.247,20.381 L32.317,20.226 L32.373,20.075 L32.416,19.929 L32.448,19.788 L32.468,19.65 L32.478,19.516 L32.478,19.384 L32.468,19.253 L32.447,19.121 L32.416,18.984 L32.354,18.8 L32.288,18.641 C31.736,17.304 32.441,16.126 33.863,16.009 C35.286,15.893 36.887,16.882 37.44,18.22 L37.44,18.22" fill="#000000"/>
    <path d="M64.999,20.569 L64.995,20.367 L64.946,19.747 L64.835,19.063 L64.664,18.388 L64.436,17.729 L64.155,17.086 L63.675,16.214 L62.881,15.087 L61.901,13.987 L60.792,12.965 L59.567,12.012 L58.237,11.12 L56.808,10.282 L55.285,9.492 L53.669,8.743 L51.965,8.034 L50.172,7.361 L48.293,6.722 L46.331,6.116 L44.285,5.543 L42.161,5.002 L39.96,4.493 L37.682,4.016 L35.333,3.571 L32.913,3.159 L30.427,2.781 L27.877,2.437 L25.266,2.128 L22.596,1.854 L19.872,1.617 L17.095,1.417 L14.27,1.255 L11.4,1.131 L8.487,1.048 L5.534,1.006 L4.024,1 L4.024,1 C1.262,0.99 -0.987,2.772 -1,4.981 C-1.013,7.19 1.215,8.989 3.976,9 C3.976,9 3.976,9 3.976,9 L5.356,9.004 L8.13,9.043 L10.865,9.12 L13.556,9.234 L16.199,9.384 L18.789,9.57 L21.326,9.789 L23.802,10.042 L26.216,10.326 L28.561,10.641 L30.836,10.985 L33.034,11.357 L35.154,11.756 L37.188,12.179 L39.134,12.626 L40.988,13.095 L42.742,13.583 L44.396,14.089 L45.94,14.609 L47.371,15.14 L48.686,15.679 L49.876,16.22 L50.939,16.759 L51.869,17.288 L52.664,17.8 L53.323,18.285 L53.85,18.732 L54.251,19.13 L54.576,19.531 L54.758,19.822 L54.833,19.961 L54.893,20.091 L54.938,20.21 L54.972,20.326 L54.996,20.511 L55.001,20.714 C55.051,22.923 57.33,24.681 60.091,24.641 C62.852,24.6 65.049,22.777 64.999,20.569 L64.999,20.569" fill="#090C8D" opacity="0.86"/>
  </g>
</svg>
