<?xml version="1.0" encoding="UTF-8"?>
<!DOCTYPE svg PUBLIC "-//W3C//DTD SVG 1.1//EN" "http://www.w3.org/Graphics/SVG/1.1/DTD/svg11.dtd">
<svg version="1.1" xmlns="http://www.w3.org/2000/svg" xmlns:xlink="http://www.w3.org/1999/xlink" x="0" y="0" width="60" height="41.379" viewBox="0, 0, 60, 41.379">
  <g id="Layer_1">
    <path d="M16.966,11.793 L45.103,11.793 L45.103,28.138 L16.966,28.138 z" fill="#FFFFFF" id="canvas_background"/>
    <path d="M2.409,7.387 L2.243,7.843 L1.834,9.118 L1.476,10.507 L1.214,11.879 L1.048,13.228 L0.976,14.545 L0.992,15.828 L1.094,17.07 L1.275,18.272 L1.529,19.429 L1.852,20.542 L2.238,21.612 L2.682,22.637 L3.179,23.623 L3.725,24.567 L4.317,25.473 L4.95,26.343 L5.622,27.176 L6.331,27.978 L7.073,28.747 L7.846,29.485 L8.649,30.194 L9.48,30.874 L10.335,31.527 L11.215,32.153 L12.118,32.753 L13.04,33.328 L13.981,33.876 L15.398,34.639 L17.349,35.58 L19.378,36.441 L21.443,37.206 L23.535,37.877 L25.641,38.452 L27.752,38.931 L29.86,39.314 L31.956,39.596 L33.552,39.745 L34.625,39.81 L35.657,39.845 L36.684,39.852 L37.706,39.829 L38.722,39.776 L39.737,39.69 L40.747,39.569 L41.759,39.41 L42.773,39.209 L43.793,38.961 L44.823,38.66 L45.866,38.296 L46.927,37.859 L48.008,37.335 L49.11,36.707 L50.224,35.96 L51.339,35.076 L52.065,34.417 L52.065,34.417 C52.184,34.303 52.3,34.186 52.414,34.067 L52.414,34.067 L52.583,33.891 L53.363,32.996 L54.154,31.949 L54.818,30.933 L55.383,29.95 L55.871,28.993 L56.298,28.057 L56.679,27.136 L57.157,25.833 L57.714,24.074 L58.198,22.279 L58.607,20.505 L58.952,18.763 L59.242,17.062 L59.484,15.418 L59.679,13.848 L59.833,12.37 L59.923,11.314 L59.972,10.641 L60.01,10.016 L60.038,9.425 L60.058,8.866 L60.069,8.339 L60.071,8.054 L60.071,8.054 C60.09,4.299 56.94,2.127 53.035,3.202 C49.13,4.277 45.948,8.192 45.929,11.946 C45.929,11.946 45.929,11.946 45.929,11.946 L45.929,12.05 L45.924,12.371 L45.912,12.747 L45.892,13.175 L45.864,13.642 L45.83,14.131 L45.763,14.935 L45.643,16.12 L45.489,17.38 L45.302,18.68 L45.083,19.99 L44.834,21.275 L44.562,22.496 L44.274,23.611 L43.966,24.631 L43.733,25.296 L43.608,25.619 L43.506,25.866 L43.439,26.025 L43.422,26.085 L43.48,26.032 L43.637,25.863 L43.757,25.753 L43.586,25.933 L43.935,25.583 L44.267,25.3 L44.531,25.127 L44.71,25.037 L44.797,25.012 L44.787,25.038 L44.685,25.098 L44.495,25.179 L44.227,25.27 L43.886,25.363 L43.481,25.452 L43.018,25.533 L42.502,25.601 L41.943,25.654 L41.339,25.691 L40.7,25.71 L40.028,25.71 L39.326,25.69 L38.636,25.653 L37.535,25.559 L35.959,25.357 L34.334,25.072 L32.679,24.705 L31.013,24.26 L29.355,23.738 L27.72,23.142 L26.126,22.477 L24.56,21.732 L23.426,21.127 L22.713,20.715 L22.024,20.29 L21.36,19.854 L20.723,19.405 L20.114,18.947 L19.535,18.479 L18.988,18.004 L18.476,17.523 L17.997,17.037 L17.555,16.55 L17.15,16.06 L16.783,15.572 L16.454,15.087 L16.164,14.607 L15.912,14.136 L15.697,13.673 L15.518,13.222 L15.374,12.784 L15.263,12.359 L15.183,11.948 L15.131,11.547 L15.105,11.159 L15.106,10.774 L15.132,10.393 L15.184,10.008 L15.264,9.611 L15.423,9.074 L15.591,8.613 C17.005,4.722 15.201,1.294 11.561,0.956 C7.921,0.617 3.823,3.496 2.409,7.387 L2.409,7.387" fill="#000000"/>
  </g>
</svg>
